<svg xmlns="http://www.w3.org/2000/svg" width="467" height="768"><path fill="#1e1916" d="m257 63 1 3q2 11 8 22c5 11 5 18 2 30l-1 9q1 5-2 8l-4 2-4 14-4 27h157v30h37v108l-1 3h-10l-26 1 19 25 7 11 2 2 8 12 2 2 16 21 3 7h-45c-2 16-2 16 4 30l10 8 9 7 14 11 3 2q4 4 3 10-1 13-6 25l-1 3a221 221 0 0 1-50 84l-2 3-3 2-2 2q-24 24-56 38l-4 2c-19 9-19 9-24 9l1 3 26 48 1 3 2 3 3 5 1 5h-41v17l-3 1h-58v9q2 5 6 9 3 4 2 9 1 9-6 15-6 6-16 5-9 0-13-8-6-7-4-17l7-10 1-12h-61v-18h-40l5-11 1-2 3-5 1-2 24-45-15-7q-31-11-57-32l-3-2-8-7-2-2-16-16q-18-21-31-47l-1-2q-9-18-15-38l-1-2c-5-15-5-15-3-23l7-7 4-3 2-2 12-11 4-4q6-2 8-9v-24H0l4-8 2-2 2-2 3-5 1-2 9-12 2-2 34-47-28-1h-2l-7-1V208h32v-30h160c-2-15-2-15-7-28l-2-8-3-6q-3-5-1-11l1-2v-4l-1-2q-7-15 0-31 4-12 14-19h3v2q0 16 10 30 3 6 2 14v6h-3l-2-5-1-3-2-6-2-1q-4-2-6-7l-2-3-2-2q-5 13-2 26l4 4 3 1-2-7-1-8 5 1 3 6q2 7 9 11l2-1 11-1q6 1 11-5l2-5 1-2 1-2h3v4l-1 3-1 6h4q4-17-4-32-4-8-4-17v-4q0-6 5-7m-10 66c-15 2-15 2-20 0v2h-6l-1 3q6 3 11 2v3h-2v2h-7l2 1v3l2 6q4 3 7 3l1 4h-17l2 20h4v-8l-3-1v-6h6l2 9v6h5c0-7 0-7-3-12v-4l7 2 1 14h9v-2l-4-1-3-11h7l1 3v-9l-5-1-1-5 3-1q4-1 6-5l1-4-16-2 1-3q7-2 13-1 6-1 9-6v-2zm-33 12-1 7 4 1v-8zM59 186v29H27l1 96h43l-7 11-1 2-2 2-2 3-14 19-24 33-1 2-2 2-5 8h38v28h10v-36H30l47-65 2-2 10-14 1-2H37l1-77h31v-31h326v30h32v78h-50l12 16 17 25 9 11 10 14 1 2 5 7 2 2 4 6h-32v36h10v-28h39l-24-33-27-38-2-2-2-2-1-2-2-5h43l1-96h-37v-30H62zm17 15v30l-32 1v63l54 1 1 116H75v-19h12v7h-5v5h9v-20H68v36h40v-19l-1-53c0-15 0-15 3-19l12-6 9-5 2-1q49-20 100-20h2c42 0 85 9 120 33l4 1-1 89h40v-36h-23v20h9v-5h-4v-7h12v19h-24V295h52v-63l-32-1-1-30zm196 106 8 4a120 120 0 0 1 70 86h1l1-51c0-7 0-7-3-12l-6-3-4-2c-20-10-44-22-67-22m-145 22-5 2-7 5-1 13v15l1 10v21l4-10q7-23 23-42l2-2q17-19 42-30l5-3c-21 0-46 11-64 21m22 15c-21 22-31 52-30 81q3 50 40 83 8 8 17 12l2 1q42 22 88 9 45-14 68-56c14-27 16-59 7-88q-14-43-53-65c-49-24-101-15-139 23m226-32v66h48l-7-11-2-2-1-3-4-5-2-2-9-12-1-2-14-19-1-2-2-2zm-285 1-2 3-2 2-2 3-3 5-2 2-8 12-10 14c-11 11-11 11-17 24h47v-65zM41 437l-4 4-14 12-6 5-2 2-2 2 3 4 9-7 14-11 5-6q7-8 16-9h53v-5l-51-1q-13 0-21 10m312-9-1 4 3 1h48q8-1 15 5l7 7 2 1 2 1 16 14q4 5 10 6l3-3v-2l-5-4-3-3-3-2-5-4-3-3-6-5-2-1-11-10q-8-5-18-2h-49M45 449l-21 18q-2 2-2 6l5 17q16 46 50 82l2 2a224 224 0 0 0 97 55l2 1h2l4 1-25 48-1 2-2 6h30v18h103v-18h31l-4-11-2-3-1-2-2-4-20-37 3-1a208 208 0 0 0 139-108c12-24 12-24 18-50l-9-7-2-2-14-10-4-5q-11-9-25-8h-15l-10 1h-21v4h31c25-1 25-1 33 6l5 5 7 6 15 11q-2 16-9 30l-1 4q-15 34-41 61l-2 2c-28 30-70 46-108 58l5 12 1 2 20 39-27-1v18h-85v-17l-27-1 26-51-3-1a243 243 0 0 1-128-83 222 222 0 0 1-31-63l-1-2-1-3 1-6 6-5 1-1 22-18 7-1h4l3-1h41l-1-4-48-1c-10 0-14 3-21 10m4 14-6 5-6 6 1 4 1 2 1 3 1 3 11 26 1 2a167 167 0 0 0 32 46c29 33 76 53 118 63l-5 12-1 2-10 19-8 16h23v18h71v-18h23l-14-28-2-3-6-12-2-6 2-1 26-8a224 224 0 0 0 83-49l2-2c25-24 39-55 50-87l-11-10-2-2-2-1-4-4c-8-8-17-8-27-8l-40 1-1 2-3 8-1 3q-8 22-23 37l-2 4-2 1-6 5a118 118 0 0 1-94 28l-3-1-24-6-3-1a117 117 0 0 1-70-80l-31-1c-21-1-21-1-37 12m253 173 21 42 1 2a29 29 0 0 0 15 15l-7-14-18-35-1-2q-2-6-9-8zm-130 1q-8 3-10 10l-1 2-4 7-19 36q5 0 8-3 5-6 9-14l14-28 1-3 4-6zm2 59q-2 2-2 5v11l7-5v-13zm122-2v13l7 4v-13zm-63 27v8h9v-8zm-5 20q-3 5-2 11 2 6 7 8 6 2 11-1 5-2 5-8 1-5-2-10-4-4-9-4-6 0-10 4"/><path fill="#1e1916" d="M264 342q9 9 14 19l4 3 9 1q11 0 21 8c7 12 4 30 1 44l-2 10-1 4q-1 6-7 10l5 12 1 2 10 17h-29c-18-1-18-1-32 7l-6 6-4 3-2 2-26 23-4 1q-3-1-5-5l-2-2-1-2-24-32q-19-3-39-1l4-11 2-3 1-3 2-3 3-7-2-1q-12-3-18-15-3-6 0-13l1-3 1-4q8-15 24-22l2-1 2-1 2-1 8-2v-17l6-1v-2q7-17 23-27 31-14 58 7m-31-6v8l6-1q-1-4-6-7m-19 0-5 2-2 2-7 4 1 4 2-1 12-9zm14 1-4 5 6 1-1-6zm12 1 1 3v-3zm8 0 8 7 4 5h2l1-3-4-3-2-2q-4-4-9-4m-32 3-5 4-4 2-2 2v4l4 3 4 2 6-15zm29 1-2 3 2 7 2 3 3 4 4-2 2-2 2-1q-2-5-6-8l-3-2zm-23 3-4 9-1 6q6 3 13 2v-14zm11 2v16h5l3-1 4-1q-1-7-5-15zm-37 1c-6 7-6 7-9 16l2 3h2l1-2 5-10 1-5-1-2zm69 3-2 3 1 2 7 12 4-3-5-10-2-2-1-2zm-64 4q-6 7-7 16l5 3 3 2 7 3 3-18zm57 3-8 5 1 6v3l2 8q8-2 15-8l-7-16zm-43 5-3 17 14 4h4v-17zm23 3-5 1v17h6l4-1 6-1-3-17zm-58 1v9l3-1v-7zm100 0-1 8 4 1v-9zm-94 2v2l2-1zm100 0v1h8v-1zm0 4v1h20v-1zm-99 1-1 4v2l4 1-1-7zm86 0-1 6 4-1v-5zm-80 1c0 9 0 9 3 17 5 5 5 5 12 6v-15l-7-4-2-1zm68 5-8 4v15h4l3-1 5-1 2-7 1-3 1-11q-5 1-8 4m26-2v2h21v-2zm-107 2q-4 20 7 36l7 10 9 13h10l3-1h7l2-24v-2q1-5-2-9l-5-1v3l-1 3v4l-3 8-4 2 2-5-8 2 4-5-1-1q-14-13-16-30h-5q-1 11 4 21l4 9-4-3-2-3-1-2-4-18v-8zm100-1v3q-1 16-9 30h-2l2-4 1-3 2-4q3-9 2-18h-4l-1 4q-4 16-15 27l3 5-2-2-3-1-3 1 1 3h-3q-4-10-4-20l-1 3-6-1q-2 19 2 36h7l6 1 6-1 5-7 2-2 5-7 2-3q13-17 10-39zm-68 6v15l3 1v-2l1-2v-3l2-3h7l3 11 2-1v-13l-7-1-2-1zm75 0-1 2h24l-1-2zm-112 1-4 2h5zm64 1-6 1v14h2l1-2v-2l1-3 3-4 6 2v4l1 3 2 1 1-9v-6zm-76 5v1h13v-1zm124 0v1l24 1v-2zm-67 1q-2 3-2 7h5v-6zm21 0-2 2 1 5 4-1v-5zm-88 7h24l-1-2h-19zm133-2v2h25v-2zm-86 2c5 8 5 8 12 13q-1-6-3-10zm53 3-2 4-1 3v5l11-11v-2zm-105 1-1 2h32l-1-2zm136 0v2h26v-2zm-71 1 2 4v-4zm15 1 1 13h1v-13zm5 0v13h1l1-4v-3zm-88 5-1 2h38l-1-2zm137 0-1 2h27l1-2zm-140 6-1 2 44 1v-2zm136 1-1 2h30v-2zm-137 6 1 2h48l-1-2zm87 0v2h7v-2zm45 0-1 2h33l1-2zm-129 7 1 2h49v-2zm83 0v2h9v-2zm41 0-1 2h37v-2zm-117 6 4 2h43l-1-2zm74 0v3l7 3 6-3-1-3zm39 0-1 2h36l1-2zm-102 6-1 4-7 15-1 5h69l2 4q4 3 9 3 3 0 5-4 4-4 10-3h62l-7-14-1-2-4-6h-5l7 16-22-1-23-1h-3q-11-1-19 5l-1 1-6-3q-9-4-19-3h-3l-21 1-21 1 2-3 2-5 1-2v-2l1-2 1-4zm130 0 1 2 1-2zm-100 30v1h30v-1zm49 0v1h16v-1zm-45 6 1 2h53l1-2zm5 7 1 2h39l2-2zm4 6 3 3h18l9-1v-1zm5 7 1 2h15l2-2zm5 6 1 2 3-1z"/><path fill="#1e1916" d="m299 334 4 4 3 2q30 27 35 68c1 31-4 59-25 83l-2 2c-17 21-44 34-70 37q-46 4-82-26-34-30-38-76-1-33 15-62l2-3q7-11 17-21l2-2c37-35 99-37 139-6m-131 8-2 2a98 98 0 0 0-35 77v3a101 101 0 0 0 169 75l3-2a103 103 0 0 0-135-155"/><path fill="#1e1a17" d="M353 475h8q2 3 1 6v68q1 6-2 11l1 6v7l-10 7h-2l-1-10v-8l1-4v-9l-14 14 4 10v14l-5 3-3 2-6 1v-9l-2-5-3-8v-28c-2-24-2-24 5-33l11-9q12-11 17-26m-14 40q-7 6-6 16l1 14 1-1 9-7 6-7v-23c-4 0-8 6-11 8"/><path fill="#1e1916" d="M220 596h29l2-1h5l4 3 1 8v52q0 4-3 6l-1 4v13h-12v-22l3-1v-12h-22v6l1 3v3l2 1v22h-12v-10l-1-6-2-1q-2-4-1-8v-54l1-5zm5 13v24h24v-24zM108 475q6 1 6 3l1 2 2 2 1 2 9 13c4 5 2 13 2 19l-5-1-1-2v39c-1 5-1 5 2 9l2 2v6l2 1 6 3 1-4h5v-32q0-6-4-10l-2-2v-16l9 6q3 5 7 6 3 2 2 5v57h-6v2q0 4-4 6-7-1-13-6l-2-1-6-4-2-1-5-4-1-6-2-4q-5-7-4-16v-74M368 475c13-1 13-1 17 2l2 4 1 2 5 9 4 7 3 5q5-8 5-17h-3l-4-1-1-7v-4h20l5 1q1 8-2 18l-1 2q-5 18-18 31-4-1-7-6l-2-2-1-3-2-2-6-10-1 31h2c3 9 3 9 2 14q-5 8-13 12v-14l-3-5q-3-3-2-10v-57"/><path fill="#1f1916" d="M311 528q4 3 4 7v17l-4 2-3 1-5 1-1-11-3 2-5 2v2l-1 43 8-1v12l-19 5-7 1v-13l6-1-1-33c-11 11-11 11-12 23h-11q-2-9 2-17l11-13 9-11q6-8 17-14l2-1 3-2 3-1z"/><path fill="#1e1916" d="M357 207h21l5 14 1 2 6 23 4 12 7 23-2 2-12-6v4l-1 7-4 1-9-5-13-8v-7l-2-1-4-2v-56q-1-4 3-3m7 10v32l-1 3q-1 6 3 10l3 2v4q1 5 4 6l5 2v-14l7 2-11-40-3-7zM162 530l11 4 3 1 3 2 2 1 10 11 1 2 9 14-9 7-6-8-2-2-2-4-1-2-2-1q-1-3-6-4v29l1 8 2 1 1 4 7 2 1-5h5l2 1 7 1 1 11-4 1h-2v2q0 3-4 5l-5-1-2-1-8-2-3-1q-8-2-11-9l-1-2-1-1v-57q0-4 3-7M93 207h4l-4 19-1 3-9 33 10-2v12l7-1q3-5 2-11v-11l1-32v-7l1-3h6l3 1v15l1 37q1 11-7 19-4 5-10 5-8-1-14-6l-1-5-3 1-10 1 4-20 1-3 8-28 1-3v-2l2-8 1-3z"/><path fill="#1f1916" d="M47 475h23v11l-7 1 3 7 23 1v-9h-6v-8l1-3h11l7 1v28q-5 3-10 2h-7v21l1 3v3l3 2v15h-2l-9-11-1-2c-7-9-12-15-11-27h3l2 3 1-6h-4q-5 1-9-3l-7-12-2-4c-3-8-3-8-3-13"/><path fill="#1e1916" d="m121 207 6 1 4 8 1 3 2 3 1 4 4 2v-3l-2-6v-9l1-3h7q2 3 2 7l2 4q2 5 1 11v31l-9 2-13-27v17l3 2v12c-7 4-7 4-10 4v-7l-4-4v-49q0-4 4-3M332 206h3l12 2q5 5 4 13l-1 18v32l-10-3-1-22-6-1v2c0 11 0 11-2 16l-9-2 2-11-2-9-1-4-2-7q-5-11-1-21 7-4 14-3m-5 11v7l1 2v3l1 2 2 6h9v-20zM192 134v2l-3 1-107 33-4 1-2 1H66l-4-5 1-7q6-3 12-4l4-1 4-1 70-13 3-1 26-5h2l2-1zM277 131l32 6 79 18 4 1q4 0 6 4 2 5-2 9-3 3-7 3l-5-1-35-13-3-1-69-24zM232 56v10l1 10 1-2q2-12 13-17v3q0 17 7 34 2 6-1 13l-7 6h-3v-3q2-12-3-25l-1-1-2 3 1 2q3 11-1 21-3-1-4-6l-9-17q-6-9-5-19 2-7 8-11zm2 24 1 2Zm1 3 1 2Z"/><path fill="#1f1a16" d="M298 206h4q5 1 8 7l8 24c3 11 3 11 3 17l-7-1-1 5-19-4-2-4-3-2v-32l1-8q4-2 8-2m0 11v15c-1 6-1 6 2 12l2 2 4-1v-2h2q-2-13-6-25z"/><path fill="#1e1916" d="M290 262h4l3 1 6 2 2 4 1 3 1 3 1 2 2 7 1-3 2-3 1-4 4-5q6 0 11 3v24q0 4-3 6v6h-5l-3-1v-8l2-4v-12l-10 19-4-3-1-3-1-3-1-3-1-3-3-4v3l2 4v10l-8-2-1-4-2-5v-27"/><path fill="#1f1a16" d="M170 207h4l3 1v10l1 23 3 1v-3l1-23v-3l1-6h6l3 1v15l1 16q0 7-5 12-4 3-9 2-7-2-12-8v-31q-1-9 3-7"/><path fill="#1e1916" d="M228 207h4q6 0 11 4v12l-1 11v5l1 3 2 7h-10l-3-12h-2v8l-1 4h-9v-41q4-2 8-1m2 10v12h3v-12zM183 119v2l-3 1-52 9-2 1-20 4q-8 2-15-1l-3-5 3-6q13-4 27-4h3zM279 119l80 1 4 1 9 3 2 6-3 5q-14 3-28-2l-16-3-12-2-36-7zM230 257h7l4 5 1 3 2 3 2 3 4 8 1-14h-4v-8l12 1v35c-10 0-10 0-12-2l-2-3-2-3-2-4-2-3-1-3v7l3 2v8h-8v-3l-1-3-2-1zM336 277q6 0 11 3l4 1 8 6 1 6v3l-1 4v4c0 9 0 9-2 13l-1 4v4l-7-4 1-14-9-4 1 2 1 11c-6-1-6-1-8-3l-1-4-2-7v-22q-1-4 4-3m4 8v9l11 5v-9q-4-4-11-5M265 207q4 1 6 5v9h-10v-4h-4l1 5 7 3 6 5v15l-5 5h-12q-3 0-5-4l-2-10h10v5h5l-1-6-7-4-2-1-5-2v-10q0-6 3-10 7-2 15-1M133 277c3 3 1 10 1 13v10l-2 7v4l-3 4-5 2v-8l1-6-9 4 2 6v8c-5 4-5 4-8 4v-4l-1-3-1-4v-28c18-9 18-9 25-9m-13 11-3 1-2 1v9l11-5v-9zM203 207q6-1 10 3l3 3q-1 5-5 8l-4-3-1 6h10v10h-10v7l3-1h7v9l-8 1-3 1h-4l-4-1-1-6v-30q-2-9 7-7"/><path fill="#1f1916" d="M209 547q13 5 22 15 3 12-3 23l-5 3-20-27-4-6q3-8 10-8m4 13q4 7 9 13l2-3-5-7-2-2z"/><path fill="#1e1a17" d="M214 257h3l3-1 4 3q4 7 2 14v3q1 6-2 11l-1 6-9 1h-7l-3-1v-6h-2q-2-6-1-12v-2q-1-9 5-15zm-3 8q-2 5-2 11v2q0 4 2 8h5q3-6 2-13v-8z"/><path fill="#1f1916" d="m163 265 1 17c0 14 0 14-4 19q-5 5-12 6-5 0-9-3v-24h-2v-7l8-3 3-1v9h-2l1 20 6-2 1-6v-3l1-2v-9h-2v-9z"/><path fill="#1e1916" d="m266 258 8 1h2q4-1 8 3 4 7 4 17v2q1 9-6 15h-8q-6-1-10-5-4-7-2-14l-1-3q0-9 5-16m4 9v19c6 3 6 3 9 1v-19c-3-2-3-2-9-1M138 98h4l24 3 3 1h3l3 1 6 1v2l-43 3h-3c-21 2-21 2-26-1l-1-8c7-9 20-4 30-2M269 546l-2 7-10 4-5 2h6l1 4c-5 6-5 6-9 6h-6l2 10h5v8h-11l-7-17q2-5 5-9l1-2 4-5 1-2q7-6 17-7zM352 99l3 5-3 5q-10 4-21 1h-3l-47-4v-2l56-7 3-1q7-1 12 3"/><path fill="#1e1a17" d="M194 259h2l3 1v6l-1 3-12-1v20l5-1v8l-11 3h-6v-7l4-1v-20h-5l-1 3h-6v-9l8-2h2z"/><path fill="#1e1916" d="m151 79 3 1 9 3 20 6 4 2v2l-37-2h-3c-16-1-16-1-20-5l-1-5 3-5c6-3 15 1 22 3"/><path fill="#1f1a17" d="m158 207 6 1v45l-2 4-8 1v-48q0-4 4-3"/><path fill="#1e1916" d="m330 76 4 4v6q-5 5-13 4l-9 1h-3l-31 2 1-3 4-2h3l3-1 3-1 22-7 2-1q7-2 14-2M278 207h4l3 1v44l-10-1v-41q-1-4 3-3M150 58q6 0 11 3l2 1 27 16v2l-26-5-4-1h-4l-3-1-9-4-1-6q2-5 7-5M229 0c6 0 6 0 9 3q3 11-2 24l-1 6-3 12h-2l-2-16c-3-23-3-23 0-27z"/><path fill="#1f1916" d="M384 341h2l5 6 16 24h-23zM81 341h2v30H60l6-9 2-3 2-2 6-9 4-5z"/><path fill="#1e1916" d="M167 43q8 2 12 9l10 8 1 2 7 5v2q-10-1-19-6l-4-1c-12-5-12-5-15-11l1-5zM315 59l3 3v5q-3 4-7 4l-2 1h-3l-3 1-28 7q2-5 7-7l23-12 2-1zM300 46l3 3q0 4-3 7l-8 5-3 1-3 2-4 1-13 5 6-8 3-3 2-3 3-2 3-3 2-2q5-6 12-3M196 19c5 1 5 3 8 7l5 14 1 3 3 8-8-6-2-2-2-2-2-3c-9-9-9-9-9-14l1-4zM185 31l7 8 12 19q-9-3-16-9l-3-2-2-2-3-1-5-6 1-6q4-3 9-1M255 10l3 4q0 6-4 12l-1 3-2 3-2 4-4 8-3-1 1-13 1-3v-7l3-8q3-3 8-2M216 11q4 7 4 15v2l1 16h-2l-6-11-2-3q-5-8-5-17 4-5 10-2M267 21q3 0 5 2 1 5-2 10l-5 7-2 1-7 9-1 2h-2l6-21 1-2c2-8 2-8 7-8M284 33l4 3q1 5-2 9l-7 4-2 2-6 4-2 1-6 3 8-14 1-2 2-3 1-2q4-5 9-5"/></svg>